<svg xmlns="http://www.w3.org/2000/svg" viewBox="0 0 29.1 29.1"><g id="Layer_2" data-name="Layer 2"><g id="Layer_1-2" data-name="Layer 1"><path d="M22.36,12.32,18.08,12,28.9,1.18a.69.69,0,0,0-1-1L17.11,11l-.34-4.28A.69.69,0,0,0,16,6.1a.69.69,0,0,0-.63.74l.44,5.78h0v.15s0,0,0,0v0l0,0v0l0,0,0,0,0,0,.13.13,0,0,0,0,0,0h0l0,0h.22l5.78.45a.71.71,0,0,0,.5-.17.68.68,0,0,0,.24-.47.7.7,0,0,0-.64-.75Z"/><path d="M6.74,16.78l4.28.33L.2,27.92a.69.69,0,0,0,1,1L12,18.08l.34,4.29a.69.69,0,0,0,.74.63.69.69,0,0,0,.64-.74l-.45-5.77h0v-.07s0,0,0,0v0s0,0,0,0,0,0,0,0v0l0,0v0l0,0,0,0,0,0L13,16l0,0,0,0,0,0h0l0,0h-.23L6.84,15.4a.66.66,0,0,0-.5.16A.68.68,0,0,0,6.1,16a.7.7,0,0,0,.64.75Z"/></g></g></svg>