<svg xmlns="http://www.w3.org/2000/svg" viewBox="0 0 30 30"><g id="Layer_2" data-name="Layer 2"><g id="Layer_1-2" data-name="Layer 1"><path d="M23,1.39l4.28.32L16.49,12.53a.69.69,0,1,0,1,1L28.29,2.69,28.62,7a.69.69,0,0,0,.74.64A.7.7,0,0,0,30,6.86l-.45-5.77h0V1a0,0,0,0,0,0,0s0,0,0,0,0,0,0,0,0,0,0,0,0,0,0,0l0,0s0,0,0,0l0,0v0l0,0L29.28.59l0,0h0l0,0h0l0,0h-.23L23.14,0a.72.72,0,0,0-.51.17.67.67,0,0,0-.24.47.71.71,0,0,0,.64.75Z"/><path d="M7,28.61l-4.28-.32L13.51,17.47a.69.69,0,1,0-1-1L1.71,27.31,1.38,23A.69.69,0,1,0,0,23.14l.45,5.77h0V29a0,0,0,0,0,0,0v0s0,0,0,0,0,0,0,0,0,0,0,0l0,0v0l0,0a0,0,0,0,1,0,0l0,0,.13.13,0,0h0l0,0h0l0,0h.23L6.86,30a.7.7,0,0,0,.75-.64A.71.71,0,0,0,7,28.61Z"/></g></g></svg>