<svg 
 xmlns="http://www.w3.org/2000/svg"
 xmlns:xlink="http://www.w3.org/1999/xlink"
 width="15px" height="16px">
<path fill-rule="evenodd"  fill="rgb(0, 91, 191)"
 d="M10.182,7.872 L13.888,11.578 C14.258,11.948 14.258,12.547 13.888,12.917 C13.703,13.102 13.460,13.195 13.218,13.195 C12.975,13.195 12.733,13.102 12.548,12.917 L8.172,8.542 C7.995,8.364 7.895,8.123 7.895,7.872 C7.895,7.621 7.995,7.380 8.172,7.202 L12.548,2.826 C12.918,2.456 13.518,2.456 13.888,2.826 C14.257,3.196 14.257,3.796 13.888,4.166 L10.182,7.872 ZM2.830,7.872 L8.875,13.917 C9.245,14.287 9.245,14.887 8.875,15.257 C8.690,15.442 8.448,15.534 8.205,15.534 C7.963,15.534 7.720,15.442 7.535,15.257 L0.820,8.542 C0.643,8.364 0.543,8.123 0.543,7.872 C0.543,7.621 0.643,7.380 0.820,7.202 L7.535,0.487 C7.905,0.117 8.505,0.117 8.875,0.487 C9.245,0.857 9.245,1.457 8.875,1.827 L2.830,7.872 Z"/>
</svg>