<?xml version="1.0" encoding="utf-8"?><svg xmlns="http://www.w3.org/2000/svg" xmlns:xlink="http://www.w3.org/1999/xlink"><symbol viewBox="0 0 15 16" id="close-filter" xmlns="http://www.w3.org/2000/svg"><path fill-rule="evenodd" fill="#005BBF" d="M10.182 7.872l3.706 3.706a.946.946 0 11-1.34 1.339L8.172 8.542a.951.951 0 010-1.34l4.376-4.376a.948.948 0 011.34 1.34l-3.706 3.706zm-7.352 0l6.045 6.045a.948.948 0 01-1.34 1.34L.82 8.542a.951.951 0 010-1.34L7.535.487a.948.948 0 011.34 1.34L2.83 7.872z"/></symbol><symbol viewBox="0 0 13 13" id="cross" xmlns="http://www.w3.org/2000/svg"><path fill-rule="evenodd" fill="#ADAEB1" d="M12.18.877L6.832 6.225l5.398 5.191-.927.721-5.191-5.192-5.194 5.194-.72-.721 5.193-5.193L.41.875.761.154l5.351 5.351L11.46.156l.72.721z"/></symbol></svg>