<?xml version="1.0" encoding="utf-8"?><svg xmlns="http://www.w3.org/2000/svg" xmlns:xlink="http://www.w3.org/1999/xlink"><symbol viewBox="0 0 15 16" id="close-filter" xmlns="http://www.w3.org/2000/svg"><path fill-rule="evenodd" fill="#005BBF" d="M10.182 7.872l3.706 3.706a.946.946 0 11-1.34 1.339L8.172 8.542a.951.951 0 010-1.34l4.376-4.376a.948.948 0 011.34 1.34l-3.706 3.706zm-7.352 0l6.045 6.045a.948.948 0 01-1.34 1.34L.82 8.542a.951.951 0 010-1.34L7.535.487a.948.948 0 011.34 1.34L2.83 7.872z"/></symbol><symbol viewBox="0 0 13 13" id="cross" xmlns="http://www.w3.org/2000/svg"><path fill-rule="evenodd" fill="#ADAEB1" d="M12.18.877L6.832 6.225l5.398 5.191-.927.721-5.191-5.192-5.194 5.194-.72-.721 5.193-5.193L.41.875.761.154l5.351 5.351L11.46.156l.72.721z"/></symbol><symbol viewBox="0 0 30 30" id="full-close" xmlns="http://www.w3.org/2000/svg"><g data-name="Layer 2"><g data-name="Layer 1"><path d="M23 1.39l4.28.32-10.79 10.82a.69.69 0 101 1l10.8-10.84.33 4.31a.69.69 0 00.74.64.7.7 0 00.64-.78l-.45-5.77V1l-.27-.41h-.23L23.14 0a.72.72 0 00-.51.17.67.67 0 00-.24.47.71.71 0 00.64.75zM7 28.61l-4.28-.32 10.79-10.82a.69.69 0 10-1-1L1.71 27.31 1.38 23a.69.69 0 10-1.38.14l.45 5.77V29l.13.13h.23l6.05.87a.7.7 0 00.75-.64.71.71 0 00-.61-.75z"/></g></g></symbol><symbol viewBox="0 0 29.1 29.1" id="full-open" xmlns="http://www.w3.org/2000/svg"><g data-name="Layer 2"><g data-name="Layer 1"><path d="M22.36 12.32L18.08 12 28.9 1.18a.69.69 0 00-1-1L17.11 11l-.34-4.28A.69.69 0 0016 6.1a.69.69 0 00-.63.74l.44 5.78v.15l.13.13h.22l5.78.45a.71.71 0 00.5-.17.68.68 0 00.24-.47.7.7 0 00-.64-.75zM6.74 16.78l4.28.33L.2 27.92a.69.69 0 001 1L12 18.08l.34 4.29a.69.69 0 00.74.63.69.69 0 00.64-.74l-.45-5.77v-.07L13 16h-.23l-5.93-.6a.66.66 0 00-.5.16.68.68 0 00-.24.44.7.7 0 00.64.75z"/></g></g></symbol></svg>